# xmcd
#
# Track frame offsets: 
#        150
#        17500
#        36134
#        67749
#        92940
#        111519
#        123826
#        163839
#        177797
#        198725
#        218595
#        239453
#
# Disc length: 3493 seconds
#
# Revision: 0
# Processed by: cddbd v1.5.2PL0 Copyright (c) Steve Scherf et al.
# Submitted via: ExactAudioCopy v0.99pb4
#
DISCID=a10da30c
DTITLE=Phillip Walker - Big Blues From Texas
DYEAR=1992
DGENRE=Blues
TTITLE0=Dressin'Trashy
TTITLE1=Young Devil
TTITLE2=She's Gone
TTITLE3=Bluesmobile
TTITLE4=Beatrice, Beatrice
TTITLE5=Don't Leave Me Baby
TTITLE6=Play Me Some Blues
TTITLE7=Insomnia
TTITLE8=Goodie Train
TTITLE9=She Torture Me
TTITLE10=You're So Fine
TTITLE11=Big Blues From Texas
EXTD=
EXTT0=
EXTT1=
EXTT2=
EXTT3=
EXTT4=
EXTT5=
EXTT6=
EXTT7=
EXTT8=
EXTT9=
EXTT10=
EXTT11=
PLAYORDER=
